{
	"patcher" : 	{
		"fileversion" : 1,
		"appversion" : 		{
			"major" : 7,
			"minor" : 0,
			"revision" : 3,
			"architecture" : "x86",
			"modernui" : 1
		}
,
		"rect" : [ 164.0, 79.0, 649.0, 423.0 ],
		"bglocked" : 0,
		"openinpresentation" : 1,
		"default_fontsize" : 12.0,
		"default_fontface" : 0,
		"default_fontname" : "Arial",
		"gridonopen" : 1,
		"gridsize" : [ 15.0, 15.0 ],
		"gridsnaponopen" : 1,
		"objectsnaponopen" : 1,
		"statusbarvisible" : 2,
		"toolbarvisible" : 1,
		"lefttoolbarpinned" : 0,
		"toptoolbarpinned" : 0,
		"righttoolbarpinned" : 0,
		"bottomtoolbarpinned" : 0,
		"toolbars_unpinned_last_save" : 0,
		"tallnewobj" : 0,
		"boxanimatetime" : 200,
		"enablehscroll" : 1,
		"enablevscroll" : 1,
		"devicewidth" : 0.0,
		"description" : "",
		"digest" : "",
		"tags" : "",
		"style" : "",
		"subpatcher_template" : "",
		"boxes" : [ 			{
				"box" : 				{
					"format" : 6,
					"id" : "obj-22",
					"maxclass" : "flonum",
					"numinlets" : 1,
					"numoutlets" : 2,
					"outlettype" : [ "", "bang" ],
					"parameter_enable" : 0,
					"patching_rect" : [ 222.0, 324.0, 50.0, 22.0 ],
					"presentation" : 1,
					"presentation_rect" : [ 152.0, 73.5, 50.0, 22.0 ],
					"style" : ""
				}

			}
, 			{
				"box" : 				{
					"id" : "obj-17",
					"maxclass" : "newobj",
					"numinlets" : 1,
					"numoutlets" : 1,
					"outlettype" : [ "" ],
					"patching_rect" : [ 172.0, 87.0, 72.0, 22.0 ],
					"style" : "",
					"text" : "loadmess 1"
				}

			}
, 			{
				"box" : 				{
					"fontname" : "Arial",
					"fontsize" : 12.0,
					"id" : "obj-40",
					"maxclass" : "newobj",
					"numinlets" : 1,
					"numoutlets" : 2,
					"outlettype" : [ "bang", "bang" ],
					"patching_rect" : [ 176.0, 192.0, 34.0, 22.0 ],
					"style" : "",
					"text" : "t b b"
				}

			}
, 			{
				"box" : 				{
					"fontname" : "Arial",
					"fontsize" : 12.0,
					"id" : "obj-13",
					"maxclass" : "message",
					"numinlets" : 2,
					"numoutlets" : 1,
					"outlettype" : [ "" ],
					"patching_rect" : [ 167.5, 226.0, 37.0, 22.0 ],
					"style" : "",
					"text" : "set 0"
				}

			}
, 			{
				"box" : 				{
					"id" : "obj-35",
					"maxclass" : "toggle",
					"numinlets" : 1,
					"numoutlets" : 1,
					"outlettype" : [ "int" ],
					"parameter_enable" : 0,
					"patching_rect" : [ 176.0, 122.0, 20.0, 20.0 ],
					"style" : ""
				}

			}
, 			{
				"box" : 				{
					"fontface" : 0,
					"fontname" : "Arial",
					"fontsize" : 12.0,
					"id" : "obj-33",
					"maxclass" : "newobj",
					"numinlets" : 2,
					"numoutlets" : 1,
					"outlettype" : [ "bang" ],
					"patching_rect" : [ 176.0, 165.0, 65.0, 22.0 ],
					"style" : "",
					"text" : "metro 100"
				}

			}
, 			{
				"box" : 				{
					"fontface" : 0,
					"fontname" : "Arial",
					"fontsize" : 12.0,
					"id" : "obj-30",
					"maxclass" : "newobj",
					"numinlets" : 3,
					"numoutlets" : 1,
					"outlettype" : [ "float" ],
					"patching_rect" : [ 176.0, 268.5, 59.0, 22.0 ],
					"style" : "",
					"text" : "accum 0."
				}

			}
, 			{
				"box" : 				{
					"bgcolor" : [ 0.780392, 0.941176, 0.741176, 1.0 ],
					"candicane2" : [ 0.145098, 0.203922, 0.356863, 1.0 ],
					"candicane3" : [ 0.290196, 0.411765, 0.713726, 1.0 ],
					"candicane4" : [ 0.439216, 0.619608, 0.070588, 1.0 ],
					"candicane5" : [ 0.584314, 0.827451, 0.431373, 1.0 ],
					"candicane6" : [ 0.733333, 0.035294, 0.788235, 1.0 ],
					"candicane7" : [ 0.878431, 0.243137, 0.145098, 1.0 ],
					"candicane8" : [ 0.027451, 0.447059, 0.501961, 1.0 ],
					"id" : "obj-16",
					"maxclass" : "multislider",
					"numinlets" : 1,
					"numoutlets" : 2,
					"outlettype" : [ "", "" ],
					"parameter_enable" : 0,
					"patching_rect" : [ 13.25, 314.0, 157.0, 65.0 ],
					"peakcolor" : [ 0.498039, 0.498039, 0.498039, 1.0 ],
					"presentation" : 1,
					"presentation_rect" : [ 16.0, 69.0, 128.0, 31.0 ],
					"setminmax" : [ 0.0, 1.0 ],
					"setstyle" : 5,
					"slidercolor" : [ 0.690196, 0.023529, 0.101961, 1.0 ],
					"style" : ""
				}

			}
, 			{
				"box" : 				{
					"fontface" : 0,
					"fontname" : "Arial",
					"fontsize" : 12.0,
					"id" : "obj-28",
					"maxclass" : "newobj",
					"numinlets" : 1,
					"numoutlets" : 1,
					"outlettype" : [ "float" ],
					"patching_rect" : [ 100.0, 177.0, 43.0, 22.0 ],
					"style" : "",
					"text" : "abs 0."
				}

			}
, 			{
				"box" : 				{
					"fontface" : 0,
					"fontname" : "Arial",
					"fontsize" : 12.0,
					"id" : "obj-5",
					"maxclass" : "newobj",
					"numinlets" : 1,
					"numoutlets" : 2,
					"outlettype" : [ "float", "float" ],
					"patching_rect" : [ 100.0, 117.0, 29.5, 22.0 ],
					"style" : "",
					"text" : "t f f"
				}

			}
, 			{
				"box" : 				{
					"fontface" : 0,
					"fontname" : "Arial",
					"fontsize" : 12.0,
					"id" : "obj-8",
					"maxclass" : "newobj",
					"numinlets" : 2,
					"numoutlets" : 1,
					"outlettype" : [ "float" ],
					"patching_rect" : [ 100.0, 148.0, 29.5, 22.0 ],
					"style" : "",
					"text" : "- 0."
				}

			}
, 			{
				"box" : 				{
					"bubble" : 1,
					"bubbleside" : 3,
					"fontname" : "Arial",
					"fontsize" : 9.0,
					"id" : "obj-18",
					"linecount" : 4,
					"maxclass" : "comment",
					"numinlets" : 1,
					"numoutlets" : 0,
					"patching_rect" : [ 11.25, 59.0, 52.0, 51.0 ],
					"presentation" : 1,
					"presentation_rect" : [ 8.25, 33.5, 116.75, 21.0 ],
					"style" : "",
					"text" : "Accum Window (ms)"
				}

			}
, 			{
				"box" : 				{
					"fontname" : "Arial",
					"fontsize" : 12.0,
					"id" : "obj-39",
					"maxclass" : "newobj",
					"numinlets" : 1,
					"numoutlets" : 1,
					"outlettype" : [ "bang" ],
					"patching_rect" : [ 402.0, 150.0, 60.0, 22.0 ],
					"style" : "",
					"text" : "loadbang"
				}

			}
, 			{
				"box" : 				{
					"fontname" : "Arial",
					"fontsize" : 12.0,
					"id" : "obj-37",
					"maxclass" : "newobj",
					"numinlets" : 2,
					"numoutlets" : 2,
					"outlettype" : [ "", "" ],
					"patching_rect" : [ 339.0, 284.0, 61.0, 22.0 ],
					"style" : "",
					"text" : "route text"
				}

			}
, 			{
				"box" : 				{
					"fontname" : "Arial",
					"fontsize" : 12.0,
					"id" : "obj-32",
					"keymode" : 1,
					"maxclass" : "textedit",
					"numinlets" : 1,
					"numoutlets" : 4,
					"outlettype" : [ "", "int", "", "" ],
					"parameter_enable" : 0,
					"patching_rect" : [ 339.0, 247.0, 62.0, 30.0 ],
					"presentation" : 1,
					"presentation_rect" : [ 136.0, 37.0, 62.0, 20.0 ],
					"style" : "",
					"text" : "100"
				}

			}
, 			{
				"box" : 				{
					"comment" : "Input sensor data stream (0. - 1.)",
					"id" : "obj-7",
					"maxclass" : "inlet",
					"numinlets" : 0,
					"numoutlets" : 1,
					"outlettype" : [ "" ],
					"patching_rect" : [ 72.0, 55.0, 15.0, 15.0 ],
					"style" : ""
				}

			}
, 			{
				"box" : 				{
					"fontname" : "Arial",
					"fontsize" : 12.0,
					"id" : "obj-14",
					"maxclass" : "message",
					"numinlets" : 2,
					"numoutlets" : 1,
					"outlettype" : [ "" ],
					"patching_rect" : [ 463.0, 64.5, 37.0, 22.0 ],
					"style" : "",
					"text" : "open"
				}

			}
, 			{
				"box" : 				{
					"fontname" : "Arial",
					"fontsize" : 12.0,
					"id" : "obj-12",
					"maxclass" : "newobj",
					"numinlets" : 1,
					"numoutlets" : 1,
					"outlettype" : [ "" ],
					"patching_rect" : [ 435.5, 95.0, 53.0, 22.0 ],
					"style" : "",
					"text" : "pcontrol"
				}

			}
, 			{
				"box" : 				{
					"fontname" : "Arial",
					"fontsize" : 12.0,
					"id" : "obj-11",
					"maxclass" : "newobj",
					"numinlets" : 1,
					"numoutlets" : 0,
					"patcher" : 					{
						"fileversion" : 1,
						"appversion" : 						{
							"major" : 7,
							"minor" : 0,
							"revision" : 3,
							"architecture" : "x86",
							"modernui" : 1
						}
,
						"rect" : [ 493.0, 86.0, 443.0, 137.0 ],
						"bglocked" : 0,
						"openinpresentation" : 0,
						"default_fontsize" : 12.0,
						"default_fontface" : 0,
						"default_fontname" : "Arial",
						"gridonopen" : 1,
						"gridsize" : [ 15.0, 15.0 ],
						"gridsnaponopen" : 1,
						"objectsnaponopen" : 1,
						"statusbarvisible" : 2,
						"toolbarvisible" : 1,
						"lefttoolbarpinned" : 0,
						"toptoolbarpinned" : 0,
						"righttoolbarpinned" : 0,
						"bottomtoolbarpinned" : 0,
						"toolbars_unpinned_last_save" : 0,
						"tallnewobj" : 0,
						"boxanimatetime" : 200,
						"enablehscroll" : 1,
						"enablevscroll" : 1,
						"devicewidth" : 0.0,
						"description" : "",
						"digest" : "",
						"tags" : "",
						"style" : "",
						"subpatcher_template" : "",
						"boxes" : [ 							{
								"box" : 								{
									"fontname" : "Arial",
									"fontsize" : 12.0,
									"hidden" : 1,
									"id" : "obj-11",
									"maxclass" : "message",
									"numinlets" : 2,
									"numoutlets" : 1,
									"outlettype" : [ "" ],
									"patching_rect" : [ 484.5, 82.0, 47.0, 22.0 ],
									"style" : "",
									"text" : "wclose"
								}

							}
, 							{
								"box" : 								{
									"id" : "obj-9",
									"legacytextcolor" : 1,
									"maxclass" : "textbutton",
									"numinlets" : 1,
									"numoutlets" : 3,
									"outlettype" : [ "", "", "int" ],
									"parameter_enable" : 0,
									"patching_rect" : [ 348.5, 11.0, 54.0, 30.0 ],
									"presentation" : 1,
									"presentation_rect" : [ 340.0, 33.0, 25.0, 26.0 ],
									"style" : "",
									"text" : "X",
									"usebgoncolor" : 1,
									"usetextovercolor" : 1
								}

							}
, 							{
								"box" : 								{
									"fontname" : "Arial",
									"fontsize" : 12.0,
									"hidden" : 1,
									"id" : "obj-7",
									"maxclass" : "newobj",
									"numinlets" : 1,
									"numoutlets" : 2,
									"outlettype" : [ "", "" ],
									"patching_rect" : [ 484.5, 139.0, 69.0, 22.0 ],
									"save" : [ "#N", "thispatcher", ";", "#Q", "end", ";" ],
									"style" : "",
									"text" : "thispatcher"
								}

							}
, 							{
								"box" : 								{
									"fontname" : "Arial",
									"fontsize" : 12.0,
									"id" : "obj-3",
									"linecount" : 8,
									"maxclass" : "comment",
									"numinlets" : 1,
									"numoutlets" : 0,
									"patching_rect" : [ -2.5, 7.0, 337.0, 114.0 ],
									"style" : "",
									"text" : "MovementL: Monitors a sensor stream for ammount of delta change (i.e. movement) in a given window of time. \nThe smaller the window, the more immediate but less accurate. Larger windows are more accurate but less immediate.\nUse this along with em.smooth for controlling things you want to correspond to the ammount of movement of your data stream"
								}

							}
, 							{
								"box" : 								{
									"comment" : "",
									"hidden" : 1,
									"id" : "obj-1",
									"maxclass" : "inlet",
									"numinlets" : 0,
									"numoutlets" : 1,
									"outlettype" : [ "" ],
									"patching_rect" : [ 425.0, 7.0, 25.0, 25.0 ],
									"style" : ""
								}

							}
 ],
						"lines" : [ 							{
								"patchline" : 								{
									"destination" : [ "obj-7", 0 ],
									"disabled" : 0,
									"hidden" : 1,
									"source" : [ "obj-11", 0 ]
								}

							}
, 							{
								"patchline" : 								{
									"destination" : [ "obj-11", 0 ],
									"disabled" : 0,
									"hidden" : 1,
									"source" : [ "obj-9", 0 ]
								}

							}
 ]
					}
,
					"patching_rect" : [ 435.5, 122.0, 43.0, 22.0 ],
					"saved_object_attributes" : 					{
						"description" : "",
						"digest" : "",
						"globalpatchername" : "",
						"style" : "",
						"tags" : ""
					}
,
					"style" : "",
					"text" : "p help"
				}

			}
, 			{
				"box" : 				{
					"bubble" : 1,
					"bubbleside" : 3,
					"fontname" : "Arial",
					"fontsize" : 12.0,
					"id" : "obj-10",
					"maxclass" : "comment",
					"numinlets" : 1,
					"numoutlets" : 0,
					"patching_rect" : [ 335.5, 59.0, 100.0, 24.0 ],
					"presentation" : 1,
					"presentation_rect" : [ 140.0, 4.0, 54.0, 24.0 ],
					"style" : "",
					"text" : "Help"
				}

			}
, 			{
				"box" : 				{
					"id" : "obj-9",
					"maxclass" : "button",
					"numinlets" : 1,
					"numoutlets" : 1,
					"outlettype" : [ "bang" ],
					"patching_rect" : [ 435.5, 61.0, 20.0, 20.0 ],
					"presentation" : 1,
					"presentation_rect" : [ 194.0, 4.0, 20.0, 20.0 ],
					"style" : ""
				}

			}
, 			{
				"box" : 				{
					"autofit" : 1,
					"id" : "obj-3",
					"maxclass" : "fpic",
					"numinlets" : 1,
					"numoutlets" : 1,
					"outlettype" : [ "jit_matrix" ],
					"patching_rect" : [ 2.0, 186.0, 36.0, 34.0 ],
					"pic" : "output.png",
					"presentation" : 1,
					"presentation_rect" : [ 1.0, 119.0, 25.0, 25.0 ]
				}

			}
, 			{
				"box" : 				{
					"autofit" : 1,
					"id" : "obj-1",
					"maxclass" : "fpic",
					"numinlets" : 1,
					"numoutlets" : 1,
					"outlettype" : [ "jit_matrix" ],
					"patching_rect" : [ 2.0, 5.0, 36.0, 34.0 ],
					"pic" : "input.png",
					"presentation" : 1,
					"presentation_rect" : [ 1.0, 4.0, 25.0, 25.0 ]
				}

			}
, 			{
				"box" : 				{
					"fontname" : "Arial",
					"fontsize" : 12.0,
					"id" : "obj-6",
					"maxclass" : "comment",
					"numinlets" : 1,
					"numoutlets" : 0,
					"patching_rect" : [ 38.0, 5.0, 111.0, 20.0 ],
					"presentation" : 1,
					"presentation_rect" : [ 26.0, 4.0, 111.0, 20.0 ],
					"style" : "",
					"text" : "Movement"
				}

			}
, 			{
				"box" : 				{
					"comment" : "",
					"id" : "obj-4",
					"maxclass" : "outlet",
					"numinlets" : 1,
					"numoutlets" : 0,
					"patching_rect" : [ 62.0, 268.5, 25.0, 25.0 ],
					"style" : ""
				}

			}
, 			{
				"box" : 				{
					"angle" : 0.0,
					"border" : 1,
					"grad1" : [ 0.537255, 0.537255, 0.537255, 1.0 ],
					"grad2" : [ 0.258824, 0.258824, 0.258824, 1.0 ],
					"id" : "obj-31",
					"maxclass" : "panel",
					"mode" : 1,
					"numinlets" : 1,
					"numoutlets" : 0,
					"patching_rect" : [ 463.0, 11.0, 33.5, 24.0 ],
					"presentation" : 1,
					"presentation_rect" : [ 5.0, 30.5, 225.0, 84.0 ],
					"proportion" : 0.39,
					"style" : ""
				}

			}
 ],
		"lines" : [ 			{
				"patchline" : 				{
					"destination" : [ "obj-11", 0 ],
					"disabled" : 0,
					"hidden" : 0,
					"source" : [ "obj-12", 0 ]
				}

			}
, 			{
				"patchline" : 				{
					"destination" : [ "obj-30", 0 ],
					"disabled" : 0,
					"hidden" : 0,
					"source" : [ "obj-13", 0 ]
				}

			}
, 			{
				"patchline" : 				{
					"destination" : [ "obj-12", 0 ],
					"disabled" : 0,
					"hidden" : 0,
					"source" : [ "obj-14", 0 ]
				}

			}
, 			{
				"patchline" : 				{
					"destination" : [ "obj-35", 0 ],
					"disabled" : 0,
					"hidden" : 0,
					"source" : [ "obj-17", 0 ]
				}

			}
, 			{
				"patchline" : 				{
					"destination" : [ "obj-16", 0 ],
					"disabled" : 0,
					"hidden" : 0,
					"source" : [ "obj-28", 0 ]
				}

			}
, 			{
				"patchline" : 				{
					"destination" : [ "obj-30", 1 ],
					"disabled" : 0,
					"hidden" : 0,
					"source" : [ "obj-28", 0 ]
				}

			}
, 			{
				"patchline" : 				{
					"destination" : [ "obj-22", 0 ],
					"disabled" : 0,
					"hidden" : 0,
					"source" : [ "obj-30", 0 ]
				}

			}
, 			{
				"patchline" : 				{
					"destination" : [ "obj-4", 0 ],
					"disabled" : 0,
					"hidden" : 0,
					"source" : [ "obj-30", 0 ]
				}

			}
, 			{
				"patchline" : 				{
					"destination" : [ "obj-37", 0 ],
					"disabled" : 0,
					"hidden" : 0,
					"source" : [ "obj-32", 0 ]
				}

			}
, 			{
				"patchline" : 				{
					"destination" : [ "obj-40", 0 ],
					"disabled" : 0,
					"hidden" : 0,
					"source" : [ "obj-33", 0 ]
				}

			}
, 			{
				"patchline" : 				{
					"destination" : [ "obj-33", 0 ],
					"disabled" : 0,
					"hidden" : 0,
					"source" : [ "obj-35", 0 ]
				}

			}
, 			{
				"patchline" : 				{
					"destination" : [ "obj-33", 1 ],
					"disabled" : 0,
					"hidden" : 0,
					"source" : [ "obj-37", 0 ]
				}

			}
, 			{
				"patchline" : 				{
					"destination" : [ "obj-32", 0 ],
					"disabled" : 0,
					"hidden" : 0,
					"source" : [ "obj-39", 0 ]
				}

			}
, 			{
				"patchline" : 				{
					"destination" : [ "obj-13", 0 ],
					"disabled" : 0,
					"hidden" : 0,
					"source" : [ "obj-40", 0 ]
				}

			}
, 			{
				"patchline" : 				{
					"destination" : [ "obj-30", 0 ],
					"disabled" : 0,
					"hidden" : 0,
					"source" : [ "obj-40", 1 ]
				}

			}
, 			{
				"patchline" : 				{
					"destination" : [ "obj-8", 0 ],
					"disabled" : 0,
					"hidden" : 0,
					"source" : [ "obj-5", 1 ]
				}

			}
, 			{
				"patchline" : 				{
					"destination" : [ "obj-8", 1 ],
					"disabled" : 0,
					"hidden" : 0,
					"source" : [ "obj-5", 0 ]
				}

			}
, 			{
				"patchline" : 				{
					"destination" : [ "obj-5", 0 ],
					"disabled" : 0,
					"hidden" : 0,
					"source" : [ "obj-7", 0 ]
				}

			}
, 			{
				"patchline" : 				{
					"destination" : [ "obj-28", 0 ],
					"disabled" : 0,
					"hidden" : 0,
					"source" : [ "obj-8", 0 ]
				}

			}
, 			{
				"patchline" : 				{
					"destination" : [ "obj-14", 0 ],
					"disabled" : 0,
					"hidden" : 0,
					"source" : [ "obj-9", 0 ]
				}

			}
 ],
		"dependency_cache" : [ 			{
				"name" : "input.png",
				"bootpath" : "~/Documents/Max 7/Library/eMotionV2.8/_DataProcessorPlugins",
				"patcherrelativepath" : ".",
				"type" : "PNG",
				"implicit" : 1
			}
, 			{
				"name" : "output.png",
				"bootpath" : "~/Documents/Max 7/Library/eMotionV2.8/_DataProcessorPlugins",
				"patcherrelativepath" : ".",
				"type" : "PNG ",
				"implicit" : 1
			}
 ],
		"embedsnapshot" : 0
	}

}
